<svg width="238" height="325" viewBox="0 0 238 325" fill="none" xmlns="http://www.w3.org/2000/svg">
<path fill-rule="evenodd" clip-rule="evenodd" d="M115.66 1.25C113.07 3.325 90.1422 30.493 75.3392 49.031C53.5272 76.344 35.0932 104.118 21.2672 130.5C-3.78583 178.302 -6.64083 219.044 12.3662 257.5C27.1242 287.36 51.4702 308.589 82.9312 319.031C130.007 334.655 181.32 318.631 212.72 278.5C223.28 265.004 231.229 248.064 235.012 231C236.891 222.521 237.333 217.613 237.307 205.5C237.256 181.294 232.698 163.228 220.153 137.5C215.423 127.801 214.097 125.355 205.515 110.5C195.102 92.476 174.824 63.296 161.734 47.5C122.482 0.132999 122.362 0 118.808 0C117.935 0 116.519 0.563 115.66 1.25ZM116.734 13.853C115.967 14.91 107.645 24.938 98.2422 36.138C71.7322 67.711 55.7092 89.626 39.8522 116C25.5052 139.862 13.5552 168.5 10.8322 185.541C9.17617 195.913 9.47118 218.298 11.3872 227.604C15.8552 249.296 27.8622 270.347 44.9192 286.394C76.8322 316.415 125.981 324.271 165.316 305.638C187.747 295.012 204.343 279.128 216.132 257C232.725 225.858 232.706 188.308 216.08 150.958C203.263 122.167 180.36 85.917 155.075 54.407C139.95 35.559 120.455 12.854 118.847 12.215C118.452 12.058 117.502 12.795 116.734 13.853ZM68.3392 155.959C65.5342 157.127 61.1662 161.972 59.9032 165.315C58.1742 169.889 58.6282 177.665 60.8792 182.079C65.8822 191.884 79.5032 192.898 85.8812 183.941C89.2852 179.161 89.6522 169.789 86.6622 164.008C82.7952 156.531 75.0932 153.148 68.3392 155.959ZM159.339 155.959C156.534 157.127 152.166 161.972 150.903 165.315C149.421 169.236 149.575 177.432 151.203 181.329C151.953 183.124 154.013 185.81 155.78 187.297C158.37 189.476 160 190 164.193 190C171.812 190 176.666 186.145 178.872 178.344C182.662 164.933 170.703 151.228 159.339 155.959ZM87.0392 210.2C82.0492 215.19 94.4302 225.629 110.104 229.648C119.347 232.017 128.442 230.995 137.37 226.582C144.78 222.92 151.839 216.97 151.839 214.386C151.839 208.236 146.402 207.355 140.63 212.57C134.417 218.183 128.571 220.379 119.839 220.381C110.875 220.383 103.215 217.725 97.1012 212.492C92.9272 208.92 89.1742 208.065 87.0392 210.2Z" fill="#F51010"/>
</svg>
